<mxfile host="app.diagrams.net" modified="2023-01-10T17:24:44.049Z" agent="5.0 (Windows NT 10.0; Win64; x64) AppleWebKit/537.36 (KHTML, like Gecko) Chrome/87.0.4280.88 Safari/537.36" etag="Ex2TMzpCoFSKrnxQh25a" version="20.8.3" type="github">
  <diagram id="C5RBs43oDa-KdzZeNtuy" name="Page-1">
    <mxGraphModel dx="866" dy="1615" grid="1" gridSize="10" guides="1" tooltips="1" connect="1" arrows="1" fold="1" page="1" pageScale="1" pageWidth="827" pageHeight="1169" math="0" shadow="0">
      <root>
        <mxCell id="WIyWlLk6GJQsqaUBKTNV-0" />
        <mxCell id="WIyWlLk6GJQsqaUBKTNV-1" parent="WIyWlLk6GJQsqaUBKTNV-0" />
        <mxCell id="WIyWlLk6GJQsqaUBKTNV-2" value="" style="rounded=0;html=1;jettySize=auto;orthogonalLoop=1;fontSize=11;endArrow=block;endFill=0;strokeWidth=1;shadow=0;labelBackgroundColor=none;edgeStyle=orthogonalEdgeStyle;entryX=0.5;entryY=0;entryDx=0;entryDy=0;" parent="WIyWlLk6GJQsqaUBKTNV-1" source="WIyWlLk6GJQsqaUBKTNV-3" target="xqR6QmnRrGzKomRSIS1O-1" edge="1">
          <mxGeometry relative="1" as="geometry">
            <mxPoint x="220" y="130" as="targetPoint" />
          </mxGeometry>
        </mxCell>
        <mxCell id="WIyWlLk6GJQsqaUBKTNV-3" value="START" style="rounded=1;whiteSpace=wrap;html=1;fontSize=12;glass=0;strokeWidth=1;shadow=0;fillColor=#d5e8d4;strokeColor=#82b366;" parent="WIyWlLk6GJQsqaUBKTNV-1" vertex="1">
          <mxGeometry x="230" y="60" width="120" height="40" as="geometry" />
        </mxCell>
        <mxCell id="xqR6QmnRrGzKomRSIS1O-24" style="edgeStyle=orthogonalEdgeStyle;rounded=0;orthogonalLoop=1;jettySize=auto;html=1;strokeColor=#0d0d0d;fontSize=19;endArrow=block;endFill=0;entryX=0.5;entryY=0;entryDx=0;entryDy=0;" parent="WIyWlLk6GJQsqaUBKTNV-1" source="WIyWlLk6GJQsqaUBKTNV-6" target="xqR6QmnRrGzKomRSIS1O-9" edge="1">
          <mxGeometry relative="1" as="geometry">
            <mxPoint x="460" y="300" as="targetPoint" />
            <Array as="points">
              <mxPoint x="438" y="300" />
            </Array>
          </mxGeometry>
        </mxCell>
        <mxCell id="xqR6QmnRrGzKomRSIS1O-25" value="&lt;font style=&quot;font-size: 12px;&quot;&gt;Yes&lt;/font&gt;" style="edgeLabel;html=1;align=center;verticalAlign=middle;resizable=0;points=[];fontSize=19;" parent="xqR6QmnRrGzKomRSIS1O-24" vertex="1" connectable="0">
          <mxGeometry x="0.248" y="1" relative="1" as="geometry">
            <mxPoint x="-38" y="-33" as="offset" />
          </mxGeometry>
        </mxCell>
        <mxCell id="xqR6QmnRrGzKomRSIS1O-26" style="edgeStyle=orthogonalEdgeStyle;rounded=0;orthogonalLoop=1;jettySize=auto;html=1;strokeColor=#0d0d0d;fontSize=19;endArrow=block;endFill=0;entryX=0.442;entryY=0;entryDx=0;entryDy=0;entryPerimeter=0;" parent="WIyWlLk6GJQsqaUBKTNV-1" source="WIyWlLk6GJQsqaUBKTNV-6" target="xqR6QmnRrGzKomRSIS1O-35" edge="1">
          <mxGeometry relative="1" as="geometry">
            <mxPoint x="103.03999999999996" y="380" as="targetPoint" />
          </mxGeometry>
        </mxCell>
        <mxCell id="xqR6QmnRrGzKomRSIS1O-27" value="&lt;font style=&quot;font-size: 13px;&quot;&gt;No&lt;/font&gt;" style="edgeLabel;html=1;align=center;verticalAlign=middle;resizable=0;points=[];fontSize=19;" parent="xqR6QmnRrGzKomRSIS1O-26" vertex="1" connectable="0">
          <mxGeometry x="-0.29" y="-1" relative="1" as="geometry">
            <mxPoint x="8" y="-19" as="offset" />
          </mxGeometry>
        </mxCell>
        <mxCell id="WIyWlLk6GJQsqaUBKTNV-6" value="&lt;font style=&quot;font-size: 13px;&quot;&gt;Is year &lt;br&gt;evenly divisible by 4?&lt;/font&gt;" style="rhombus;whiteSpace=wrap;html=1;shadow=0;fontFamily=Helvetica;fontSize=12;align=center;strokeWidth=1;spacing=6;spacingTop=-4;" parent="WIyWlLk6GJQsqaUBKTNV-1" vertex="1">
          <mxGeometry x="207.5" y="240" width="165" height="120" as="geometry" />
        </mxCell>
        <mxCell id="xqR6QmnRrGzKomRSIS1O-0" value="&lt;h1&gt;Leap Year Control Logic&lt;/h1&gt;" style="text;html=1;strokeColor=none;fillColor=none;spacing=5;spacingTop=-20;whiteSpace=wrap;overflow=hidden;rounded=0;" parent="WIyWlLk6GJQsqaUBKTNV-1" vertex="1">
          <mxGeometry x="160" width="340" height="40" as="geometry" />
        </mxCell>
        <mxCell id="xqR6QmnRrGzKomRSIS1O-2" value="" style="edgeStyle=orthogonalEdgeStyle;rounded=0;orthogonalLoop=1;jettySize=auto;html=1;strokeColor=#0d0d0d;endArrow=block;endFill=0;" parent="WIyWlLk6GJQsqaUBKTNV-1" source="xqR6QmnRrGzKomRSIS1O-1" target="WIyWlLk6GJQsqaUBKTNV-6" edge="1">
          <mxGeometry relative="1" as="geometry" />
        </mxCell>
        <mxCell id="xqR6QmnRrGzKomRSIS1O-1" value="Read year, result" style="shape=parallelogram;perimeter=parallelogramPerimeter;whiteSpace=wrap;html=1;fixedSize=1;" parent="WIyWlLk6GJQsqaUBKTNV-1" vertex="1">
          <mxGeometry x="230" y="130" width="120" height="60" as="geometry" />
        </mxCell>
        <mxCell id="xqR6QmnRrGzKomRSIS1O-19" style="edgeStyle=orthogonalEdgeStyle;rounded=0;orthogonalLoop=1;jettySize=auto;html=1;strokeColor=#0d0d0d;fontSize=19;endArrow=block;endFill=0;" parent="WIyWlLk6GJQsqaUBKTNV-1" source="xqR6QmnRrGzKomRSIS1O-9" target="xqR6QmnRrGzKomRSIS1O-30" edge="1">
          <mxGeometry relative="1" as="geometry">
            <mxPoint x="610" y="550" as="targetPoint" />
            <Array as="points">
              <mxPoint x="625" y="420" />
            </Array>
          </mxGeometry>
        </mxCell>
        <mxCell id="xqR6QmnRrGzKomRSIS1O-32" value="Yes" style="edgeLabel;html=1;align=center;verticalAlign=middle;resizable=0;points=[];fontSize=13;" parent="xqR6QmnRrGzKomRSIS1O-19" vertex="1" connectable="0">
          <mxGeometry x="-0.3333" relative="1" as="geometry">
            <mxPoint x="-10" y="-20" as="offset" />
          </mxGeometry>
        </mxCell>
        <mxCell id="xqR6QmnRrGzKomRSIS1O-28" style="edgeStyle=orthogonalEdgeStyle;rounded=0;orthogonalLoop=1;jettySize=auto;html=1;strokeColor=#0d0d0d;fontSize=19;endArrow=block;endFill=0;" parent="WIyWlLk6GJQsqaUBKTNV-1" source="xqR6QmnRrGzKomRSIS1O-9" target="xqR6QmnRrGzKomRSIS1O-36" edge="1">
          <mxGeometry relative="1" as="geometry">
            <mxPoint x="270" y="490" as="targetPoint" />
            <Array as="points">
              <mxPoint x="270" y="420" />
            </Array>
          </mxGeometry>
        </mxCell>
        <mxCell id="xqR6QmnRrGzKomRSIS1O-29" value="&lt;font style=&quot;font-size: 13px;&quot;&gt;No&lt;/font&gt;" style="edgeLabel;html=1;align=center;verticalAlign=middle;resizable=0;points=[];fontSize=19;" parent="xqR6QmnRrGzKomRSIS1O-28" vertex="1" connectable="0">
          <mxGeometry x="-0.432" y="-2" relative="1" as="geometry">
            <mxPoint x="6" y="-18" as="offset" />
          </mxGeometry>
        </mxCell>
        <mxCell id="xqR6QmnRrGzKomRSIS1O-9" value="&lt;font style=&quot;font-size: 13px;&quot;&gt;Is year &lt;br&gt;evenly divisible by 100?&lt;/font&gt;" style="rhombus;whiteSpace=wrap;html=1;" parent="WIyWlLk6GJQsqaUBKTNV-1" vertex="1">
          <mxGeometry x="350" y="360" width="175" height="120" as="geometry" />
        </mxCell>
        <mxCell id="xqR6QmnRrGzKomRSIS1O-33" style="edgeStyle=orthogonalEdgeStyle;rounded=0;orthogonalLoop=1;jettySize=auto;html=1;strokeColor=#0d0d0d;fontSize=13;endArrow=block;endFill=0;" parent="WIyWlLk6GJQsqaUBKTNV-1" source="xqR6QmnRrGzKomRSIS1O-30" target="xqR6QmnRrGzKomRSIS1O-37" edge="1">
          <mxGeometry relative="1" as="geometry">
            <mxPoint x="460" y="670" as="targetPoint" />
            <Array as="points">
              <mxPoint x="460" y="570" />
              <mxPoint x="460" y="660" />
            </Array>
          </mxGeometry>
        </mxCell>
        <mxCell id="xqR6QmnRrGzKomRSIS1O-38" value="No" style="edgeLabel;html=1;align=center;verticalAlign=middle;resizable=0;points=[];fontSize=13;" parent="xqR6QmnRrGzKomRSIS1O-33" vertex="1" connectable="0">
          <mxGeometry x="0.3571" y="2" relative="1" as="geometry">
            <mxPoint x="28" y="-45" as="offset" />
          </mxGeometry>
        </mxCell>
        <mxCell id="xqR6QmnRrGzKomRSIS1O-39" style="edgeStyle=orthogonalEdgeStyle;rounded=0;orthogonalLoop=1;jettySize=auto;html=1;strokeColor=#0d0d0d;fontSize=13;endArrow=block;endFill=0;" parent="WIyWlLk6GJQsqaUBKTNV-1" source="xqR6QmnRrGzKomRSIS1O-30" target="xqR6QmnRrGzKomRSIS1O-40" edge="1">
          <mxGeometry relative="1" as="geometry">
            <mxPoint x="780" y="700" as="targetPoint" />
          </mxGeometry>
        </mxCell>
        <mxCell id="xqR6QmnRrGzKomRSIS1O-41" value="Yes" style="edgeLabel;html=1;align=center;verticalAlign=middle;resizable=0;points=[];fontSize=13;" parent="xqR6QmnRrGzKomRSIS1O-39" vertex="1" connectable="0">
          <mxGeometry x="0.3286" y="1" relative="1" as="geometry">
            <mxPoint x="24" y="-33" as="offset" />
          </mxGeometry>
        </mxCell>
        <mxCell id="xqR6QmnRrGzKomRSIS1O-30" value="&lt;font style=&quot;font-size: 13px;&quot;&gt;Is year &lt;br&gt;evenly divisible by 400?&lt;/font&gt;" style="rhombus;whiteSpace=wrap;html=1;fontSize=19;" parent="WIyWlLk6GJQsqaUBKTNV-1" vertex="1">
          <mxGeometry x="530" y="500" width="190" height="140" as="geometry" />
        </mxCell>
        <mxCell id="xqR6QmnRrGzKomRSIS1O-51" style="edgeStyle=orthogonalEdgeStyle;rounded=0;orthogonalLoop=1;jettySize=auto;html=1;strokeColor=#0d0d0d;fontSize=13;endArrow=none;endFill=0;" parent="WIyWlLk6GJQsqaUBKTNV-1" source="xqR6QmnRrGzKomRSIS1O-35" edge="1">
          <mxGeometry relative="1" as="geometry">
            <mxPoint x="280" y="790" as="targetPoint" />
            <Array as="points">
              <mxPoint x="130" y="790" />
              <mxPoint x="130" y="790" />
            </Array>
          </mxGeometry>
        </mxCell>
        <mxCell id="xqR6QmnRrGzKomRSIS1O-35" value="&lt;b style=&quot;border-color: var(--border-color);&quot;&gt;result = &quot;Not Leap&quot;&lt;/b&gt;" style="shape=parallelogram;perimeter=parallelogramPerimeter;whiteSpace=wrap;html=1;fixedSize=1;fontSize=13;fillColor=#f8cecc;strokeColor=#b85450;" parent="WIyWlLk6GJQsqaUBKTNV-1" vertex="1">
          <mxGeometry x="69.99999999999997" y="380" width="120" height="60" as="geometry" />
        </mxCell>
        <mxCell id="xqR6QmnRrGzKomRSIS1O-49" style="edgeStyle=orthogonalEdgeStyle;rounded=0;orthogonalLoop=1;jettySize=auto;html=1;strokeColor=#0d0d0d;fontSize=13;endArrow=none;endFill=0;" parent="WIyWlLk6GJQsqaUBKTNV-1" source="xqR6QmnRrGzKomRSIS1O-36" edge="1">
          <mxGeometry relative="1" as="geometry">
            <mxPoint x="270" y="800" as="targetPoint" />
            <Array as="points">
              <mxPoint x="270" y="630" />
              <mxPoint x="270" y="630" />
            </Array>
          </mxGeometry>
        </mxCell>
        <mxCell id="xqR6QmnRrGzKomRSIS1O-36" value="&lt;b&gt;result = &quot;Leap&quot;&lt;/b&gt;" style="shape=parallelogram;perimeter=parallelogramPerimeter;whiteSpace=wrap;html=1;fixedSize=1;fontSize=13;fillColor=#d5e8d4;strokeColor=#82b366;" parent="WIyWlLk6GJQsqaUBKTNV-1" vertex="1">
          <mxGeometry x="220" y="480" width="120" height="50" as="geometry" />
        </mxCell>
        <mxCell id="xqR6QmnRrGzKomRSIS1O-48" style="edgeStyle=orthogonalEdgeStyle;rounded=0;orthogonalLoop=1;jettySize=auto;html=1;strokeColor=#0d0d0d;fontSize=13;endArrow=none;endFill=0;" parent="WIyWlLk6GJQsqaUBKTNV-1" source="xqR6QmnRrGzKomRSIS1O-37" edge="1">
          <mxGeometry relative="1" as="geometry">
            <mxPoint x="460" y="790" as="targetPoint" />
          </mxGeometry>
        </mxCell>
        <mxCell id="xqR6QmnRrGzKomRSIS1O-37" value="&lt;b&gt;result = &quot;Not Leap&quot;&lt;/b&gt;" style="shape=parallelogram;perimeter=parallelogramPerimeter;whiteSpace=wrap;html=1;fixedSize=1;fontSize=13;fillColor=#f8cecc;strokeColor=#b85450;" parent="WIyWlLk6GJQsqaUBKTNV-1" vertex="1">
          <mxGeometry x="400" y="640" width="120" height="60" as="geometry" />
        </mxCell>
        <mxCell id="xqR6QmnRrGzKomRSIS1O-47" style="edgeStyle=orthogonalEdgeStyle;rounded=0;orthogonalLoop=1;jettySize=auto;html=1;entryX=0.5;entryY=0;entryDx=0;entryDy=0;strokeColor=#0d0d0d;fontSize=13;endArrow=block;endFill=0;" parent="WIyWlLk6GJQsqaUBKTNV-1" source="xqR6QmnRrGzKomRSIS1O-40" target="xqR6QmnRrGzKomRSIS1O-44" edge="1">
          <mxGeometry relative="1" as="geometry" />
        </mxCell>
        <mxCell id="xqR6QmnRrGzKomRSIS1O-40" value="&lt;b&gt;result = &quot;Leap&quot;&lt;/b&gt;" style="shape=parallelogram;perimeter=parallelogramPerimeter;whiteSpace=wrap;html=1;fixedSize=1;fontSize=13;fillColor=#d5e8d4;strokeColor=#82b366;" parent="WIyWlLk6GJQsqaUBKTNV-1" vertex="1">
          <mxGeometry x="565" y="760" width="120" height="60" as="geometry" />
        </mxCell>
        <mxCell id="xqR6QmnRrGzKomRSIS1O-43" value="END" style="rounded=1;whiteSpace=wrap;html=1;fontSize=13;fillColor=#d5e8d4;strokeColor=#82b366;fontStyle=0" parent="WIyWlLk6GJQsqaUBKTNV-1" vertex="1">
          <mxGeometry x="210" y="930" width="120" height="50" as="geometry" />
        </mxCell>
        <mxCell id="xqR6QmnRrGzKomRSIS1O-45" value="" style="edgeStyle=orthogonalEdgeStyle;rounded=0;orthogonalLoop=1;jettySize=auto;html=1;strokeColor=#0d0d0d;fontSize=13;endArrow=block;endFill=0;" parent="WIyWlLk6GJQsqaUBKTNV-1" source="xqR6QmnRrGzKomRSIS1O-44" target="xqR6QmnRrGzKomRSIS1O-43" edge="1">
          <mxGeometry relative="1" as="geometry" />
        </mxCell>
        <mxCell id="xqR6QmnRrGzKomRSIS1O-44" value="Print result&amp;nbsp;" style="rounded=0;whiteSpace=wrap;html=1;fontSize=13;" parent="WIyWlLk6GJQsqaUBKTNV-1" vertex="1">
          <mxGeometry x="210" y="840" width="120" height="40" as="geometry" />
        </mxCell>
      </root>
    </mxGraphModel>
  </diagram>
</mxfile>
